<?xml version="1.0" encoding="UTF-8"?>
<svg version="1.1" xmlns="http://www.w3.org/2000/svg" width="360" height="360">
<path d="M0 0 C1.52847565 -0.0076664 1.52847565 -0.0076664 3.08782959 -0.01548767 C6.43768275 -0.02932444 9.78732879 -0.0284313 13.13720703 -0.02612305 C15.47836381 -0.03001326 17.81951988 -0.03434861 20.16067505 -0.03910828 C25.06124156 -0.04655782 29.96173602 -0.0462884 34.86230469 -0.04101562 C41.12536863 -0.03522327 47.38813662 -0.05215281 53.65115166 -0.0753603 C58.48460601 -0.09013091 63.31798963 -0.09096478 68.15146255 -0.08785057 C70.45980541 -0.08836212 72.76815239 -0.09356852 75.07647324 -0.10366249 C78.31159142 -0.11607374 81.54614013 -0.1092068 84.78125 -0.09765625 C86.19523575 -0.10912186 86.19523575 -0.10912186 87.63778687 -0.12081909 C99.4562405 -0.02810054 110.2201196 3.88142642 118.62939453 12.4152832 C126.51517915 22.0534644 128.66694382 31.24388626 128.68115234 43.4140625 C128.68611725 44.43260818 128.69108215 45.45115387 128.69619751 46.50056458 C128.71078915 49.86667561 128.71761668 53.2327395 128.72314453 56.59887695 C128.72889908 58.94432069 128.73465678 61.28976441 128.74041748 63.63520813 C128.75091938 68.55368264 128.75676715 73.47214085 128.76025391 78.390625 C128.76573249 84.67729636 128.78975058 90.96375048 128.81822586 97.25035381 C128.83689822 102.09667072 128.84206033 106.94293582 128.84358978 111.78928566 C128.84660717 114.10600788 128.85460466 116.42272938 128.86777496 118.73941612 C128.88492902 121.98920331 128.88293207 125.23846651 128.87646484 128.48828125 C128.88567963 129.43565155 128.89489441 130.38302185 128.90438843 131.35910034 C128.82811868 143.66301041 124.54686651 152.89571376 116.39501953 161.9621582 C109.97068715 168.12779263 100.92495479 172.36497938 91.98841858 172.42855835 C91.08456421 172.43715881 90.18070984 172.44575928 89.24946594 172.45462036 C88.26504013 172.45888031 87.28061432 172.46314026 86.26635742 172.4675293 C84.70209518 172.47979553 84.70209518 172.47979553 83.10623169 172.49230957 C79.65171883 172.51713766 76.19724714 172.53367721 72.74267578 172.5480957 C71.56002073 172.55341938 70.37736568 172.55874306 69.1588726 172.56422806 C62.89343794 172.59095429 56.62802313 172.61032693 50.36254883 172.62475586 C45.19179493 172.63806915 40.02143807 172.66587522 34.85083008 172.70678711 C28.59566568 172.75627617 22.34086014 172.78089759 16.08550835 172.78798294 C13.709834 172.79466976 11.33416684 172.80982416 8.95860481 172.83387375 C-7.51110224 172.99103417 -20.88720493 172.71493823 -33.40307617 160.79760742 C-40.47013047 153.70821507 -44.57151197 144.71252176 -44.62715149 134.68527222 C-44.63430679 133.79398117 -44.6414621 132.90269012 -44.64883423 131.98439026 C-44.65152313 131.01911911 -44.65421204 130.05384796 -44.65698242 129.05932617 C-44.66355362 128.03263321 -44.67012482 127.00594025 -44.67689514 125.94813538 C-44.69658556 122.55437135 -44.70828212 119.16065152 -44.71826172 115.7668457 C-44.72233725 114.60467655 -44.72641277 113.4425074 -44.7306118 112.245121 C-44.7514557 106.09220814 -44.76576398 99.93931746 -44.77514648 93.78637695 C-44.78619943 87.44817429 -44.82059179 81.11032379 -44.86031818 74.77224541 C-44.88653005 69.88385387 -44.89484247 64.99554562 -44.89842796 60.10709 C-44.90328307 57.77164459 -44.91486614 55.43620264 -44.93346596 53.10082626 C-44.95795109 49.8223904 -44.95687479 46.54485772 -44.94995117 43.26635742 C-44.96276123 42.31323166 -44.97557129 41.3601059 -44.98876953 40.37809753 C-44.90086341 28.88049972 -40.60676956 19.58658096 -32.85498047 11.2121582 C-23.6161864 2.23095133 -12.45593282 -0.03259571 0 0 Z M-19.14794922 25.63012695 C-24.31308015 32.00701881 -24.63202765 38.82053435 -24.83154297 46.70825195 C-24.85523956 47.55407333 -24.87893616 48.39989471 -24.90335083 49.27134705 C-24.97794874 52.08482428 -25.04298598 54.8983759 -25.10498047 57.7121582 C-25.12677368 58.68042542 -25.14856689 59.64869263 -25.17102051 60.64630127 C-25.51483244 76.78080995 -25.522149 92.90680034 -25.28289795 109.04299927 C-25.24773638 111.43948156 -25.21714734 113.83603548 -25.19122314 116.2326355 C-25.15188453 119.60908262 -25.09253857 122.9845702 -25.02685547 126.3605957 C-25.01727814 127.36291733 -25.00770081 128.36523895 -24.99783325 129.39793396 C-24.82387289 136.4930534 -23.85535956 141.44988307 -19.16748047 147.0246582 C-12.02429807 153.00499695 -5.13294009 153.4243093 3.75732422 153.43579102 C4.67994049 153.44075592 5.60255676 153.44572083 6.5531311 153.45083618 C9.59939323 153.46541705 12.64560327 153.47225325 15.69189453 153.4777832 C17.81553142 153.48353829 19.9391683 153.48929598 22.06280518 153.49505615 C26.51469158 153.50555474 30.96655999 153.51140479 35.41845703 153.51489258 C41.10886326 153.52037291 46.79902969 153.54439606 52.48936081 153.57286453 C56.8766956 153.59153531 61.26397315 153.59669889 65.6513443 153.59822845 C67.74839844 153.6012458 69.84545179 153.60924315 71.94246674 153.62241364 C74.88353961 153.6395659 77.82403342 153.6375714 80.76513672 153.63110352 C82.05132401 153.64492569 82.05132401 153.64492569 83.36349487 153.6590271 C90.50327171 153.61011301 97.98683587 152.34868743 103.45751953 147.3996582 C104.00279297 146.92786133 104.54806641 146.45606445 105.10986328 145.9699707 C112.35049487 137.26516708 109.67014542 121.10589073 109.65283203 110.4309082 C109.65350872 108.93037907 109.65448176 107.42985005 109.6557312 105.92932129 C109.65719466 102.7996312 109.65510002 99.6699699 109.65039062 96.5402832 C109.64473306 92.59494221 109.64807237 88.64966907 109.65379715 84.70433044 C109.6873759 64.34502075 109.6873759 64.34502075 109.19970703 43.9934082 C109.17772247 43.18665649 109.15573792 42.37990479 109.13308716 41.54870605 C108.79822451 34.44014702 106.66625369 28.42089236 101.52001953 23.2746582 C93.98166169 19.21554244 86.07460771 19.12451311 77.72412109 19.12939453 C76.46381073 19.12435661 76.46381073 19.12435661 75.17803955 19.11921692 C72.42222584 19.10978006 69.66647336 19.10776741 66.91064453 19.10668945 C64.97784399 19.10347156 63.04504369 19.1001071 61.11224365 19.09660339 C57.06749915 19.09063008 53.02277595 19.08876162 48.97802734 19.08935547 C43.82276941 19.08945693 38.66764971 19.07581349 33.51242447 19.05858326 C29.52129502 19.04740473 25.53019836 19.04543806 21.53905487 19.04596519 C19.63986485 19.04479355 17.74067375 19.04041818 15.84149933 19.03263283 C-3.0044833 17.97091601 -3.0044833 17.97091601 -19.14794922 25.63012695 Z " fill="#F8F8F8" transform="translate(141.47998046875,96.725341796875)"/>
<path d="M0 0 C9.79610068 10.14928078 13.2882786 21.7185351 13.14453125 35.50390625 C12.39516012 48.1738292 5.69849674 58.19986325 -3.28515625 66.8046875 C-13.83532396 75.39892524 -25.7278011 78.25394299 -39.06640625 77.0703125 C-52.29774842 74.62522237 -63.37235204 67.10741647 -71.06640625 56.0703125 C-78.00190061 43.33504884 -80.05469208 32.08996758 -76.08984375 17.9765625 C-71.98773972 6.32783961 -63.08166262 -3.52922204 -52.31640625 -9.4921875 C-33.61131486 -17.85132808 -14.57379472 -13.60955499 0 0 Z M-47.06640625 10.0703125 C-48.11828125 10.7715625 -49.17015625 11.4728125 -50.25390625 12.1953125 C-55.00723608 16.49284358 -57.59574132 21.97303362 -58.55078125 28.2578125 C-58.92064301 36.97011182 -57.06146741 43.65687737 -51.1640625 50.171875 C-44.24707659 56.62418816 -37.77477352 57.55099138 -28.4765625 57.375 C-21.67034049 56.76688394 -17.85477714 54.17368078 -13.25390625 49.2578125 C-7.13924852 41.63543095 -6.05243729 34.67388057 -7.06640625 25.0703125 C-8.79943082 17.83302749 -12.9927314 13.19013974 -19.06640625 9.0703125 C-27.80477095 3.95472816 -38.78581252 4.43206554 -47.06640625 10.0703125 Z " fill="#F2F2F2" transform="translate(216.06640625,151.9296875)"/>
<path d="M0 0 C3.3483456 1.71310705 5.45076672 4.11645081 7.4375 7.3125 C8.23221457 11.10946961 8.30649395 14.35743806 7 18 C4.5094386 21.59157178 1.77887993 23.61545208 -2.51171875 24.54296875 C-7.09423323 24.79641125 -9.29806847 24.54107222 -13 21.6875 C-16.05070907 17.58810969 -17.45508868 15.29379685 -17.3203125 10.06640625 C-16.79252625 6.66154131 -15.20531664 4.57286941 -13 2 C-8.80846997 -0.55174736 -4.78636606 -0.81293566 0 0 Z " fill="#F4F4F4" transform="translate(234,128)"/>
<path d="M0 0 C1.00721603 -0.00189835 2.01443207 -0.00379669 3.0521698 -0.00575256 C6.37201797 -0.00944862 9.69164597 0.00122722 13.01147461 0.01245117 C15.32262649 0.01364373 17.63377886 0.01409597 19.94493103 0.01383972 C24.78428184 0.01540256 29.62355847 0.02367738 34.46289062 0.03710938 C40.66587601 0.05410832 46.86877998 0.05792329 53.07178593 0.05716419 C57.84241004 0.0574361 62.61301637 0.06292059 67.38363457 0.07016563 C69.6709829 0.07334735 71.95833325 0.07531855 74.24568367 0.07605934 C77.44116781 0.07822761 80.63656566 0.08698224 83.83203125 0.09765625 C84.77710541 0.09720306 85.72217957 0.09674988 86.69589233 0.09628296 C90.87350331 0.11668599 94.77965896 0.17617374 98.85131836 1.24291992 C98.85131836 1.90291992 98.85131836 2.56291992 98.85131836 3.24291992 C97.27459351 3.13790161 97.27459351 3.13790161 95.66601562 3.03076172 C78.18155807 1.98454466 60.68243097 2.05543285 43.17382812 2.05761719 C38.66575566 2.05771961 34.15783784 2.04394696 29.64980221 2.02684498 C26.131366 2.01567039 22.61296697 2.01369947 19.09451485 2.01422691 C17.43256651 2.01305967 15.77061681 2.00871001 14.10868645 2.00089455 C-2.0999002 1.15953072 -2.0999002 1.15953072 -16.71118164 6.49291992 C-22.69864587 13.24800777 -23.28025106 19.9792202 -23.50024414 28.67651367 C-23.52394073 29.52233505 -23.54763733 30.36815643 -23.572052 31.23960876 C-23.64664991 34.053086 -23.71168715 36.86663762 -23.77368164 39.68041992 C-23.79547485 40.64868713 -23.81726807 41.61695435 -23.83972168 42.61456299 C-24.18353361 58.74907167 -24.19085017 74.87506206 -23.95159912 91.01126099 C-23.91643755 93.40774328 -23.88584851 95.8042972 -23.85992432 98.20089722 C-23.8205857 101.57734434 -23.76123974 104.95283192 -23.69555664 108.32885742 C-23.68597931 109.33117905 -23.67640198 110.33350067 -23.66653442 111.36619568 C-23.4910508 118.52344269 -22.53047532 123.49469644 -17.71118164 129.05541992 C-15.54037446 130.908548 -13.77131724 132.17443875 -11.14868164 133.24291992 C-11.14868164 133.90291992 -11.14868164 134.56291992 -11.14868164 135.24291992 C-14.62990132 134.64324673 -16.56518686 133.36492982 -19.21118164 131.05541992 C-19.8827832 130.48436523 -20.55438477 129.91331055 -21.24633789 129.32495117 C-26.39679355 123.68800484 -26.57584955 118.32824667 -26.50512695 111.07836914 C-26.50717133 110.06954681 -26.5092157 109.06072449 -26.51132202 108.02133179 C-26.51432294 104.69657084 -26.49587436 101.37230919 -26.47680664 98.04760742 C-26.47374794 95.7340609 -26.47187266 93.42051254 -26.47113037 91.10696411 C-26.46653175 86.26337615 -26.45212128 81.41995486 -26.42993164 76.57641602 C-26.40161817 70.36436013 -26.39071632 64.15243526 -26.38624954 57.94032097 C-26.38209546 53.16544278 -26.37227855 48.39059113 -26.36037445 43.61572647 C-26.35467364 41.32476132 -26.34991431 39.03379363 -26.34610748 36.74282455 C-26.33924183 33.54473122 -26.32560853 30.34674179 -26.30981445 27.14868164 C-26.30869659 26.20001221 -26.30757874 25.25134277 -26.306427 24.27392578 C-26.30071686 23.40202606 -26.29500671 22.53012634 -26.28912354 21.63180542 C-26.28614887 20.87635374 -26.28317421 20.12090206 -26.28010941 19.34255791 C-26.14598498 17.19983919 -25.73536276 15.30396705 -25.14868164 13.24291992 C-24.48868164 13.24291992 -23.82868164 13.24291992 -23.14868164 13.24291992 C-23.03911133 12.65768555 -22.92954102 12.07245117 -22.81665039 11.46948242 C-22.07160824 8.98600857 -21.12170942 7.59660656 -19.46118164 5.61791992 C-18.98293945 5.0275293 -18.50469727 4.43713867 -18.01196289 3.82885742 C-12.86951887 -0.54814944 -6.36406412 -0.0379226 0 0 Z " fill="#B6B6B6" transform="translate(141.148681640625,114.757080078125)"/>
<path d="M0 0 C1.9375 0.8125 1.9375 0.8125 4 2 C4.33 2.99 4.66 3.98 5 5 C5.66 5 6.32 5 7 5 C9.54184312 11.41981013 10.43964558 16.99722034 10.40405273 23.875 C10.41091599 24.81770752 10.41777924 25.76041504 10.42485046 26.73168945 C10.44302381 29.82128323 10.43929496 32.91036469 10.43359375 36 C10.4381596 38.16276208 10.44346637 40.32552271 10.44947815 42.48828125 C10.45839031 47.01047681 10.45600709 51.53249559 10.44604492 56.0546875 C10.43454902 61.8347842 10.45478638 67.61427054 10.48396206 73.39428711 C10.50235132 77.85713542 10.50202628 82.31983813 10.49632454 86.78271484 C10.49617171 88.91325742 10.50218442 91.0438101 10.51461601 93.17431641 C10.52957818 96.15826204 10.51881082 99.14108818 10.50170898 102.125 C10.51621094 103.42981323 10.51621094 103.42981323 10.53100586 104.76098633 C10.45719546 110.94518664 8.88290489 115.54738151 6 121 C5.67 120.34 5.34 119.68 5 119 C5.33 118.01 5.66 117.02 6 116 C7.15740623 106.42213766 7.14843359 96.787805 7.1328125 87.15625 C7.13348919 85.65572087 7.13446223 84.15519185 7.13571167 82.65466309 C7.13717513 79.524973 7.13508049 76.3953117 7.13037109 73.265625 C7.12471353 69.320284 7.12805284 65.37501087 7.13377762 61.42967224 C7.16735637 41.07036255 7.16735637 41.07036255 6.6796875 20.71875 C6.65770294 19.91199829 6.63571838 19.10524658 6.61306763 18.27404785 C6.27978822 11.19909833 3.80688285 5.98224447 0 0 Z " fill="#F5F5F5" transform="translate(243,120)"/>
<path d="M0 0 C0.66 0 1.32 0 2 0 C1.98839844 1.24523437 1.97679688 2.49046875 1.96484375 3.7734375 C1.88303449 16.92274951 2.0224434 30.07224153 2.26345825 43.21929932 C2.29604469 45.10850164 2.32364579 46.9977968 2.34616089 48.887146 C2.3796124 51.58276263 2.43178935 54.2774361 2.48828125 56.97265625 C2.49467621 57.77918137 2.50107117 58.58570648 2.50765991 59.41667175 C2.67805336 65.99190764 4.02487321 70.72100755 8.4375 75.8125 C10.60830718 77.66562808 12.3773644 78.93151883 15 80 C15 80.66 15 81.32 15 82 C11.51878032 81.40032681 9.58349478 80.1220099 6.9375 77.8125 C6.26589844 77.24144531 5.59429687 76.67039062 4.90234375 76.08203125 C0.70443253 71.48760275 -0.37469892 67.19600573 -0.34057617 61.07666016 C-0.34101425 60.4125412 -0.34145233 59.74842224 -0.34190369 59.06417847 C-0.33982875 56.8888312 -0.31656086 54.7142736 -0.29296875 52.5390625 C-0.28736814 51.0230654 -0.28310024 49.50706284 -0.28010559 47.99105835 C-0.26869329 44.01581632 -0.23925776 40.04090712 -0.20599365 36.0657959 C-0.17521441 32.00354514 -0.16158353 27.9412402 -0.14648438 23.87890625 C-0.11438413 15.9191187 -0.06323213 7.95960085 0 0 Z " fill="#B4B4B4" transform="translate(115,168)"/>
<path d="M0 0 C0.33 0 0.66 0 1 0 C0.99555878 1.31829803 0.99111755 2.63659607 0.98654175 3.99484253 C0.94593158 16.44157612 0.91598483 28.8882962 0.89637566 41.3350811 C0.88595538 47.73350672 0.87182821 54.13187869 0.84912109 60.53027344 C0.82733017 66.70943858 0.81541817 72.88855223 0.81024551 79.06775284 C0.80656098 81.42075536 0.79936607 83.77375519 0.78853989 86.12673569 C0.77394203 89.43204505 0.77202554 92.73714386 0.77294922 96.04248047 C0.76575867 97.00705673 0.75856812 97.971633 0.75115967 98.96543884 C0.77764282 107.77021516 1.97039237 115.13267081 6 123 C5.67 123.99 5.34 124.98 5 126 C4.17988688 124.44148245 3.36923787 122.87798284 2.5625 121.3125 C2.11003906 120.44238281 1.65757813 119.57226562 1.19140625 118.67578125 C-0.61848936 114.61093374 -1.12484362 110.78658083 -1.12698364 106.36351013 C-1.12980347 105.46210297 -1.13262329 104.5606958 -1.13552856 103.63197327 C-1.13350433 102.6557048 -1.1314801 101.67943634 -1.12939453 100.67358398 C-1.13114685 99.63564697 -1.13289917 98.59770996 -1.13470459 97.52832031 C-1.13910227 94.1008944 -1.13619263 90.67352018 -1.1328125 87.24609375 C-1.13348609 84.8638559 -1.13445657 82.48161811 -1.13571167 80.09938049 C-1.13718578 75.10864609 -1.13504308 70.11792959 -1.13037109 65.12719727 C-1.1246709 58.72567287 -1.12795648 52.32419037 -1.13394356 45.9226675 C-1.13755425 41.00453881 -1.13640829 36.08642008 -1.13381577 31.16829109 C-1.13314807 28.80754657 -1.13396945 26.44680114 -1.13629532 24.08605766 C-1.13883047 20.78968783 -1.1349691 17.49338623 -1.12939453 14.19702148 C-1.13141876 13.21872879 -1.13344299 12.2404361 -1.13552856 11.23249817 C-1.13129883 9.88461716 -1.13129883 9.88461716 -1.12698364 8.50950623 C-1.1264181 7.34119593 -1.1264181 7.34119593 -1.12584114 6.14928341 C-0.9990478 3.98373701 -0.59605129 2.0812537 0 0 Z " fill="#989898" transform="translate(98,125)"/>
<path d="M0 0 C13.6479435 -0.06962968 27.29584446 -0.1228772 40.94392967 -0.15543652 C47.28185696 -0.1710664 53.61966237 -0.19225596 59.95751953 -0.22631836 C66.07833676 -0.25900698 72.19903703 -0.27687315 78.31993484 -0.28463173 C80.65061915 -0.29015817 82.98129734 -0.30094985 85.31193161 -0.31719017 C88.58618561 -0.33909042 91.85996143 -0.34196162 95.13427734 -0.34057617 C96.08950287 -0.351362 97.04472839 -0.36214783 98.02890015 -0.3732605 C106.2908192 -0.33563867 114.11812809 1.18268966 121 6 C117.40316664 7.19894445 116.89571431 6.74361288 113.625 5.125 C107.07759509 1.90754673 101.06104265 1.83794495 93.88549805 1.79467773 C92.36284584 1.77982834 92.36284584 1.77982834 90.80943298 1.76467896 C87.46021849 1.73313718 84.11098981 1.70833542 80.76171875 1.68359375 C78.43715551 1.66301791 76.11259596 1.64202127 73.78804016 1.62062073 C67.6741332 1.56546521 61.56019284 1.51602715 55.44622803 1.46777344 C49.20565829 1.41751082 42.96513697 1.3618496 36.72460938 1.30664062 C24.48311429 1.19913878 12.24157715 1.09767609 0 1 C0 0.67 0 0.34 0 0 Z " fill="#969696" transform="translate(131,97)"/>
<path d="M0 0 C1.9375 0.8125 1.9375 0.8125 4 2 C4.33 2.99 4.66 3.98 5 5 C5.66 5 6.32 5 7 5 C9.3983656 10.63491434 9.25750942 15.85932877 9.1953125 21.8671875 C9.1924826 22.90191193 9.18965271 23.93663635 9.18673706 25.00271606 C9.17558048 28.29359714 9.15048397 31.58420178 9.125 34.875 C9.11496437 37.11197522 9.10583953 39.34895473 9.09765625 41.5859375 C9.07565595 47.0573853 9.04222338 52.52867289 9 58 C8.34 58 7.68 58 7 58 C7.00523682 57.35264893 7.01047363 56.70529785 7.01586914 56.03833008 C7.0963718 44.48161351 7.1212547 32.92541721 6.6875 21.375 C6.66502197 20.53042236 6.64254395 19.68584473 6.61938477 18.81567383 C6.29170811 11.4589242 3.96643012 6.23296162 0 0 Z " fill="#A9A9A9" transform="translate(243,120)"/>
<path d="M0 0 C0.33 0 0.66 0 1 0 C1.24543964 7.38252662 1.4575239 14.76548424 1.64697266 22.1496582 C1.71522521 24.65899083 1.79097553 27.16813162 1.87451172 29.67700195 C1.99360398 33.29353258 2.08528004 36.9099065 2.171875 40.52734375 C2.21439392 41.64020248 2.25691284 42.75306122 2.30072021 43.89964294 C2.43427806 50.86851013 1.45673616 55.9125922 -2 62 C-2.33 61.34 -2.66 60.68 -3 60 C-2.67 59.01 -2.34 58.02 -2 57 C-0.49666437 45.16757314 -0.67230182 33.09338976 -0.4375 21.1875 C-0.39421037 19.12694616 -0.35059314 17.06639918 -0.30664062 15.00585938 C-0.20065146 10.00397724 -0.09909098 5.00202335 0 0 Z " fill="#ABABAB" transform="translate(251,179)"/>
<path d="M0 0 C1.27953905 3.84292536 1.03266268 7.62150199 0.87890625 11.609375 C0.85529526 12.33618469 0.83168427 13.06299438 0.80735779 13.81182861 C0.73101128 16.12476558 0.64686319 18.43734293 0.5625 20.75 C0.50925021 22.3215972 0.45651002 23.89321176 0.40429688 25.46484375 C0.27543568 29.31012196 0.13957873 33.15509651 0 37 C-0.66 37 -1.32 37 -2 37 C-2 25.12 -2 13.24 -2 1 C-1.34 0.67 -0.68 0.34 0 0 Z " fill="#9F9F9F" transform="translate(117,131)"/>
<path d="M0 0 C0.93423645 3.01031744 1.04449911 3.86650268 0 7 C-0.99 7.33 -1.98 7.66 -3 8 C-3.32944447 12.20041694 -3.48827365 14.31336519 -1 17.8125 C-0.01 18.8953125 -0.01 18.8953125 1 20 C1 20.66 1 21.32 1 22 C-1.6245228 21.00449135 -2.95028727 20.06036546 -4.75 17.875 C-6.35438536 14.18491367 -6.71311718 10.92597844 -6 7 C-3 1.5 -3 1.5 0 0 Z " fill="#CACACA" transform="translate(223,129)"/>
<path d="M0 0 C0.66 0.33 1.32 0.66 2 1 C1 4 1 4 -1.3125 5.375 C-7.17735353 8.92119051 -9.8755555 15.12245891 -13 21 C-14 18 -14 18 -13.3203125 16.0546875 C-9.81602689 9.66451961 -5.34152239 4.92257946 0 0 Z " fill="#B6B6B6" transform="translate(113,104)"/>
<path d="M0 0 C7.52737195 3.34549865 11.46236074 8.73440544 15 16 C15.671875 18.81640625 15.671875 18.81640625 16 21 C13.10067643 18.60490662 12.49831724 16.68754757 12 13 C11.34 13 10.68 13 10 13 C10 12.01 10 11.02 10 10 C9.34 10 8.68 10 8 10 C7.6596875 9.1028125 7.6596875 9.1028125 7.3125 8.1875 C5.66348536 5.43914226 3.72640732 4.60788124 1 3 C0.67 2.01 0.34 1.02 0 0 Z " fill="#AEAEAE" transform="translate(252,104)"/>
<path d="M0 0 C0.55253221 7.35174806 -0.48935892 12.511583 -4 19 C-4.33 18.34 -4.66 17.68 -5 17 C-4.505 15.515 -4.505 15.515 -4 14 C-3.73132424 10.61383251 -3.5548796 7.22810468 -3.37890625 3.8359375 C-3.25386719 2.90007812 -3.12882813 1.96421875 -3 1 C-1 0 -1 0 0 0 Z " fill="#BDBDBD" transform="translate(253,222)"/>
<path d="M0 0 C10.81003107 -0.38916112 20.78703319 -0.44907676 30 6 C29.01 6.33 28.02 6.66 27 7 C25.824375 6.401875 24.64875 5.80375 23.4375 5.1875 C16.18910353 1.69618903 7.90442408 1.6480434 0 1 C0 0.67 0 0.34 0 0 Z " fill="#A3A3A3" transform="translate(222,97)"/>
<path d="M0 0 C1.9375 0.8125 1.9375 0.8125 4 2 C4.33 2.99 4.66 3.98 5 5 C5.66 5 6.32 5 7 5 C8.72293135 9.46334184 9.22240791 13.10201231 9.125 17.875 C9.10695312 19.02742188 9.08890625 20.17984375 9.0703125 21.3671875 C9.03550781 22.67042969 9.03550781 22.67042969 9 24 C8.67 24 8.34 24 8 24 C8 20.04 8 16.08 8 12 C7.34 12 6.68 12 6 12 C5.566875 10.948125 5.13375 9.89625 4.6875 8.8125 C3.36129459 5.70539018 1.8167024 2.85481805 0 0 Z " fill="#BCBCBC" transform="translate(243,120)"/>
<path d="M0 0 C0.6909375 -0.020625 1.381875 -0.04125 2.09375 -0.0625 C7.19852042 -0.10088173 10.67946746 0.97669847 15.25 3.25 C15.25 3.91 15.25 4.57 15.25 5.25 C14.37601563 4.92515625 14.37601563 4.92515625 13.484375 4.59375 C5.06789689 1.73532347 -3.05864185 1.28692457 -11.75 3.25 C-9.61568492 -1.01863016 -4.2024026 0.03067447 0 0 Z " fill="#B6B6B6" transform="translate(183.75,156.75)"/>
<path d="M0 0 C0.33 0 0.66 0 1 0 C1.10957031 0.65226563 1.21914062 1.30453125 1.33203125 1.9765625 C2.27654098 7.18288442 3.57496944 11.26541653 6 16 C5.67 16.99 5.34 17.98 5 19 C1.1258097 12.3723673 -0.6212008 7.70288993 0 0 Z " fill="#B2B2B2" transform="translate(98,232)"/>
<path d="M0 0 C0.99 0.33 1.98 0.66 3 1 C1.8553125 2.3303125 1.8553125 2.3303125 0.6875 3.6875 C-1.50927111 6.31488818 -3.32560685 9.00371753 -5 12 C-5.33 10.68 -5.66 9.36 -6 8 C-5.34 8 -4.68 8 -4 8 C-3.8453125 7.13375 -3.8453125 7.13375 -3.6875 6.25 C-2.90207202 3.67950842 -1.69495803 2.06342716 0 0 Z " fill="#A9A9A9" transform="translate(122,120)"/>
<path d="M0 0 C5.75 1.875 5.75 1.875 8 3 C8 3.66 8 4.32 8 5 C9.1446875 5.185625 9.1446875 5.185625 10.3125 5.375 C13 6 13 6 16 8 C10.80073761 7.48007376 6.36286536 5.84961927 2 3 C1.34 2.01 0.68 1.02 0 0 Z " fill="#B3B3B3" transform="translate(157,219)"/>
<path d="M0 0 C1.63001953 0.01353516 1.63001953 0.01353516 3.29296875 0.02734375 C4.12441406 0.03894531 4.95585937 0.05054687 5.8125 0.0625 C5.8125 0.3925 5.8125 0.7225 5.8125 1.0625 C4.60013672 1.26166016 4.60013672 1.26166016 3.36328125 1.46484375 C2.29464844 1.64144531 1.22601563 1.81804687 0.125 2 C-0.93074219 2.17402344 -1.98648438 2.34804687 -3.07421875 2.52734375 C-5.78999604 2.99417121 -8.48874235 3.50672616 -11.1875 4.0625 C-8.11354407 -0.54843389 -5.19401656 -0.05584964 0 0 Z " fill="#B2B2B2" transform="translate(134.1875,115.9375)"/>
<path d="M0 0 C2.10364211 3.15546316 2.26411176 3.56087261 1.8125 7.0625 C1.73644531 7.75472656 1.66039062 8.44695312 1.58203125 9.16015625 C1 11 1 11 -2 13 C-2 11.68 -2 10.36 -2 9 C-1.34 9 -0.68 9 0 9 C0 6.03 0 3.06 0 0 Z " fill="#B9B9B9" transform="translate(240,135)"/>
<path d="M0 0 C3.43752007 1.5277867 6.18953688 3.50181056 9 6 C9 6.66 9 7.32 9 8 C7 8 7 8 5.625 6.75 C5.08875 6.1725 4.5525 5.595 4 5 C3.278125 4.29875 2.55625 3.5975 1.8125 2.875 C0 1 0 1 0 0 Z " fill="#A8A8A8" transform="translate(252,104)"/>
</svg>
