<?xml version="1.0" encoding="UTF-8"?>
<svg version="1.1" xmlns="http://www.w3.org/2000/svg" width="494" height="505">
<path d="M0 0 C4.53898248 0.00520263 9.0779585 0.00033032 13.61694145 -0.00277233 C21.22734881 -0.00637178 28.83771687 -0.00172052 36.44811821 0.00790882 C45.14256108 0.01878544 53.83691001 0.01525697 62.53135061 0.00425601 C70.10873365 -0.00493357 77.68608906 -0.00604622 85.26347589 -0.00086665 C89.73984907 0.00219008 94.2161787 0.00284309 98.69254875 -0.00393963 C116.19506236 -0.02672649 133.64886199 0.14583198 151.12634087 1.14853382 C152.15993217 1.20556894 152.15993217 1.20556894 153.21440411 1.26375628 C185.26632301 3.08367415 215.95500817 11.43305035 241.54626274 31.26865101 C242.53626274 31.92865101 243.52626274 32.58865101 244.54626274 33.26865101 C244.54626274 33.92865101 244.54626274 34.58865101 244.54626274 35.26865101 C245.14156792 35.5408849 245.73687309 35.81311878 246.35021782 36.09360218 C266.8888414 47.08330705 278.68457127 75.45159044 285.60876274 96.14365101 C289.93819166 111.09507964 291.82499667 126.09657891 292.64684868 141.61069202 C292.68908546 142.38414184 292.73132224 143.15759165 292.77483892 143.95447934 C293.73400641 161.84286179 293.84239477 179.71463058 293.81491375 197.62445235 C293.80969899 202.12064573 293.81458663 206.61683275 293.81768608 211.11302662 C293.82128262 218.65181447 293.81664265 226.19056261 293.80700493 233.72934437 C293.79613289 242.33061153 293.79965469 250.9317837 293.81065774 259.53304857 C293.81986079 267.04003116 293.82095357 274.54698588 293.8157804 282.0539723 C293.81273026 286.48402168 293.81205065 290.91402711 293.81885338 295.3440733 C293.84273807 313.40210885 293.60102838 331.40388907 292.63122368 349.43881702 C292.59079838 350.20572357 292.55037309 350.97263012 292.50872278 351.76277626 C290.34333709 391.85556688 277.72693237 425.66629611 249.46813774 454.71005726 C247.54626274 456.26865101 247.54626274 456.26865101 244.93688774 457.23349476 C241.97766425 458.51485787 241.92784539 459.46393435 240.54626274 462.26865101 C236.47132284 465.32806961 231.9886833 467.7815772 227.54626274 470.26865101 C226.63602348 470.78032825 226.63602348 470.78032825 225.70739555 471.30234241 C187.20317845 492.57668836 143.66362812 491.59489773 100.9691112 491.53730202 C95.92146726 491.53213833 90.87382955 491.53696149 85.82618523 491.54007435 C77.36038699 491.54368414 68.89462396 491.53899402 60.4288311 491.5293932 C50.72270223 491.51851096 41.01665745 491.52204479 31.3105306 491.53304601 C22.88749007 491.54220083 14.46447445 491.54336472 6.04143053 491.53816867 C1.04985753 491.53509393 -3.94167632 491.53451246 -8.93324661 491.54124165 C-58.44527592 491.59875417 -108.21788709 491.01444291 -148.45373726 458.26865101 C-149.44373726 457.60865101 -150.43373726 456.94865101 -151.45373726 456.26865101 C-151.45373726 455.60865101 -151.45373726 454.94865101 -151.45373726 454.26865101 C-152.11373726 454.26865101 -152.77373726 454.26865101 -153.45373726 454.26865101 C-153.45373726 453.60865101 -153.45373726 452.94865101 -153.45373726 452.26865101 C-154.77373726 451.60865101 -156.09373726 450.94865101 -157.45373726 450.26865101 C-157.45373726 449.60865101 -157.45373726 448.94865101 -157.45373726 448.26865101 C-158.11373726 448.26865101 -158.77373726 448.26865101 -159.45373726 448.26865101 C-159.45373726 447.60865101 -159.45373726 446.94865101 -159.45373726 446.26865101 C-160.00287788 446.08302601 -160.55201851 445.89740101 -161.11779976 445.70615101 C-164.58181842 443.57444722 -166.50045527 440.55504732 -168.82873726 437.26865101 C-169.31624458 436.58875111 -169.80375191 435.9088512 -170.30603218 435.20834827 C-183.912722 416.05642752 -191.23378489 395.01650924 -194.76623726 371.89365101 C-194.92559761 370.86860462 -195.08495796 369.84355824 -195.24914742 368.78744984 C-198.52700389 345.34553582 -197.60399231 321.35266895 -197.58806276 297.74359179 C-197.58549587 292.73620744 -197.5878885 287.72882475 -197.58944893 282.72144032 C-197.59125783 274.32148371 -197.5888978 265.92153595 -197.58410835 257.5215807 C-197.57866466 247.86374337 -197.58043437 238.20592716 -197.58593476 228.54809034 C-197.59049834 220.19495985 -197.59110076 211.84183566 -197.58849609 203.48870432 C-197.58695152 198.52635613 -197.58668889 193.5640178 -197.59003258 188.60167027 C-197.592959 183.93437511 -197.59084971 179.26710673 -197.58513832 174.59981441 C-197.5838361 172.90533651 -197.5841605 171.21085628 -197.58640099 169.51637936 C-197.59719481 160.51049691 -197.4376571 151.53488226 -196.99545479 142.53882313 C-196.9550171 141.71612316 -196.91457941 140.8934232 -196.87291634 140.04579294 C-196.51310592 133.33254824 -195.78051169 126.71886719 -194.70373726 120.08115101 C-194.52963326 118.98456165 -194.35552925 117.8879723 -194.17614937 116.75815296 C-192.65761985 107.65031919 -190.4682681 98.98760175 -187.45373726 90.26865101 C-187.08635445 89.16005726 -186.71897163 88.05146351 -186.34045601 86.90927601 C-180.85685034 71.45719131 -171.84053091 55.82491206 -159.80139351 44.60849476 C-158.33109347 43.28918361 -158.33109347 43.28918361 -157.45373726 41.26865101 C-156.79373726 41.26865101 -156.13373726 41.26865101 -155.45373726 41.26865101 C-155.45373726 40.60865101 -155.45373726 39.94865101 -155.45373726 39.26865101 C-154.79373726 39.26865101 -154.13373726 39.26865101 -153.45373726 39.26865101 C-153.45373726 38.60865101 -153.45373726 37.94865101 -153.45373726 37.26865101 C-150.64839837 34.70047845 -147.5161666 32.51990115 -144.45373726 30.26865101 C-143.64936226 29.67310413 -142.84498726 29.07755726 -142.01623726 28.46396351 C-136.08786905 24.18869798 -129.93885338 20.62751316 -123.45373726 17.26865101 C-122.6068232 16.81361195 -121.75990913 16.35857288 -120.88733101 15.88974476 C-116.06042525 13.35920731 -111.35046122 11.43238816 -106.09021187 10.00009632 C-103.63121977 9.31789053 -101.2015812 8.57316791 -98.76623726 7.81161976 C-84.55766519 3.55219163 -69.84716515 1.99745426 -55.08459663 1.16415882 C-54.35996821 1.12207814 -53.63533979 1.07999745 -52.88875294 1.0366416 C-35.26374359 0.03416279 -17.64845488 -0.02674144 0 0 Z M-42.69201851 46.17490101 C-43.57878777 46.214799 -44.46555702 46.254697 -45.37919807 46.29580402 C-74.30098285 47.64337147 -102.80496595 52.29929906 -124.45373726 73.26865101 C-130.72979424 80.21721725 -136.47172596 87.76772801 -140.45373726 96.26865101 C-140.87010445 97.08591663 -141.28647163 97.90318226 -141.71545601 98.74521351 C-156.64334891 130.57345364 -152.61873756 172.776242 -152.58806276 206.89246011 C-152.58546363 210.71271749 -152.58789699 214.53297295 -152.58944893 218.35323048 C-152.59124902 224.75774038 -152.58892176 231.1622386 -152.58410835 237.56674671 C-152.57866763 244.88880316 -152.58043589 252.21083174 -152.58593476 259.53288752 C-152.59052561 265.91004451 -152.59108779 272.28719329 -152.58849609 278.6643514 C-152.58696594 282.43355414 -152.58664663 286.20274394 -152.59003258 289.97194576 C-154.60123925 358.63015078 -154.60123925 358.63015078 -124.80139351 417.95615101 C-104.56303603 437.89143824 -78.58493635 443.63223861 -51.02453804 445.3965807 C-49.74344217 445.47939163 -48.46234631 445.56220257 -47.14242935 445.64752293 C-30.91240272 446.62758876 -14.66322379 446.56179001 1.59008455 446.53730202 C6.13056359 446.5321202 10.67103593 446.53696615 15.21151543 446.54007435 C22.82392674 446.54367874 30.43629883 446.53900826 38.04870415 446.5293932 C46.76590431 446.51850769 55.48301086 446.5220494 64.20020878 446.53304601 C71.77826665 446.54221148 79.35629684 446.54335981 86.93435848 446.53816867 C91.4195425 446.53510016 95.90468299 446.53449423 100.38986397 446.54124165 C161.53590171 448.05575752 161.53590171 448.05575752 215.54626274 423.26865101 C215.54626274 422.60865101 215.54626274 421.94865101 215.54626274 421.26865101 C216.86626274 420.60865101 218.18626274 419.94865101 219.54626274 419.26865101 C219.54626274 418.60865101 219.54626274 417.94865101 219.54626274 417.26865101 C220.11602837 417.04951038 220.68579399 416.83036976 221.27282524 416.60458851 C229.46056592 411.79323574 234.95483145 399.62287273 238.54626274 391.26865101 C239.09733696 389.99247913 239.09733696 389.99247913 239.65954399 388.69052601 C242.27386947 381.7862842 243.4991464 374.64435877 244.73376274 367.39365101 C244.90085747 366.41364124 245.06795219 365.43363148 245.2401104 364.42392445 C247.20912428 352.13127546 247.69833679 339.71603926 248.10046196 327.28818226 C248.14257238 325.99523746 248.18468281 324.70229267 248.22806931 323.37016773 C248.66532876 309.23355544 248.69144462 295.09870046 248.67907524 280.95615101 C248.67930036 278.15626459 248.68072503 275.35637893 248.68197441 272.55649281 C248.68377066 266.74146506 248.68145804 260.92645021 248.67663383 255.11142445 C248.67119624 248.48239038 248.67296073 241.85338712 248.67846024 235.22435379 C248.68306535 229.43139326 248.68360654 223.63844175 248.68102157 217.84547997 C248.67949864 214.43000006 248.67957081 211.01454547 248.68255806 207.59906483 C248.69223895 193.42958859 248.55661796 179.27782017 248.09264946 165.11630726 C248.0528805 163.90179386 248.01311153 162.68728046 247.97213745 161.43596363 C247.38778322 145.19814794 246.13061951 129.14223097 242.54626274 113.26865101 C242.35548149 112.39724476 242.16470024 111.52583851 241.96813774 110.62802601 C238.83700801 98.50493397 231.92819722 85.555677 223.54626274 76.26865101 C222.88626274 76.26865101 222.22626274 76.26865101 221.54626274 76.26865101 C221.54626274 75.60865101 221.54626274 74.94865101 221.54626274 74.26865101 C220.88626274 74.26865101 220.22626274 74.26865101 219.54626274 74.26865101 C219.54626274 73.60865101 219.54626274 72.94865101 219.54626274 72.26865101 C218.88626274 72.26865101 218.22626274 72.26865101 217.54626274 72.26865101 C217.54626274 71.60865101 217.54626274 70.94865101 217.54626274 70.26865101 C215.66130086 68.74852046 213.79568218 67.3741563 211.79626274 66.01865101 C211.20716118 65.61751087 210.61805962 65.21637074 210.01110649 64.80307484 C200.50164333 58.45367552 190.66274185 53.99105406 179.54626274 51.26865101 C178.84952446 51.09591663 178.15278618 50.92318226 177.43493462 50.74521351 C164.36062508 47.65308889 151.1426551 46.76147256 137.76891899 46.16708851 C136.84385048 46.12490444 135.91878197 46.08272038 134.96568108 46.039258 C107.98091645 44.84611379 80.97009468 44.96596795 53.96524292 45.0115124 C48.97366741 45.01905691 43.9821713 45.01632753 38.99059868 45.00790882 C11.75304092 44.96320719 -15.47631346 44.9254956 -42.69201851 46.17490101 Z " fill="#888787" transform="translate(199.45373725891113,6.731348991394043)"/>
<path d="M0 0 C0.50144531 0.45375 1.00289062 0.9075 1.51953125 1.375 C1.51953125 2.035 1.51953125 2.695 1.51953125 3.375 C2.07640625 3.6225 2.63328125 3.87 3.20703125 4.125 C5.94364038 5.60424818 8.19603994 7.30967439 10.51953125 9.375 C10.51953125 10.035 10.51953125 10.695 10.51953125 11.375 C11.37998047 11.72111328 11.37998047 11.72111328 12.2578125 12.07421875 C28.44722448 21.38522771 39.79660358 48.99646031 44.51953125 66.375 C51.96553871 96.09194868 50.00888705 128.65064562 36.51953125 156.375 C36.06835938 157.30570313 35.6171875 158.23640625 35.15234375 159.1953125 C19.75515041 189.03281146 -6.86477872 211.28048127 -38.55908203 222.08349609 C-70.92600715 232.10921277 -106.39389597 229.43390315 -136.49609375 213.83984375 C-142.85067223 210.41950036 -148.93108142 207.02345053 -154.48046875 202.375 C-156.61402537 200.81858348 -158.75644172 199.2760618 -160.90625 197.7421875 C-161.68548828 197.06542969 -161.68548828 197.06542969 -162.48046875 196.375 C-162.48046875 195.715 -162.48046875 195.055 -162.48046875 194.375 C-163.03089844 194.1584375 -163.58132812 193.941875 -164.1484375 193.71875 C-167.24648646 191.93360956 -169.43075281 189.50880103 -171.79296875 186.875 C-172.28007324 186.33456055 -172.76717773 185.79412109 -173.26904297 185.23730469 C-177.4384203 180.54140009 -181.15286826 175.70960617 -184.48046875 170.375 C-184.82819336 169.81893066 -185.17591797 169.26286133 -185.53417969 168.68994141 C-204.20430878 138.40158366 -209.1581652 103.37173411 -201.0703125 68.76708984 C-196.92173392 51.94268051 -189.20856436 36.94846477 -178.48046875 23.375 C-177.75214844 22.42109375 -177.02382812 21.4671875 -176.2734375 20.484375 C-172.23142225 15.26981118 -172.23142225 15.26981118 -170.48046875 13.375 C-169.82046875 13.375 -169.16046875 13.375 -168.48046875 13.375 C-168.48046875 12.715 -168.48046875 12.055 -168.48046875 11.375 C-167.82046875 11.375 -167.16046875 11.375 -166.48046875 11.375 C-166.48046875 10.715 -166.48046875 10.055 -166.48046875 9.375 C-165.82046875 9.375 -165.16046875 9.375 -164.48046875 9.375 C-164.48046875 8.715 -164.48046875 8.055 -164.48046875 7.375 C-161.34411172 4.47220147 -157.88375613 1.95566957 -154.48046875 -0.625 C-153.7121875 -1.21925781 -152.94390625 -1.81351563 -152.15234375 -2.42578125 C-106.74516498 -36.01782677 -44.91443552 -31.8303325 0 0 Z M-134.48046875 42.375 C-134.48046875 43.035 -134.48046875 43.695 -134.48046875 44.375 C-135.14046875 44.375 -135.80046875 44.375 -136.48046875 44.375 C-136.48046875 45.035 -136.48046875 45.695 -136.48046875 46.375 C-137.14046875 46.375 -137.80046875 46.375 -138.48046875 46.375 C-140.1822686 48.46535238 -141.75003707 50.54625546 -143.29296875 52.75 C-143.74365723 53.39122803 -144.1943457 54.03245605 -144.65869141 54.69311523 C-156.23623698 71.43928276 -161.33638717 91.0955793 -158.48046875 111.375 C-158.23490234 113.14810547 -158.23490234 113.14810547 -157.984375 114.95703125 C-155.32981995 130.70299441 -148.90885477 143.39063257 -138.48046875 155.375 C-137.50980469 156.49648438 -137.50980469 156.49648438 -136.51953125 157.640625 C-122.11117713 173.08248975 -101.36019802 182.05484401 -80.38061523 182.84814453 C-56.84599163 183.11147569 -36.61732126 173.88846356 -19.734375 157.75 C-9.88819588 147.43923709 -3.53675031 136.00599268 0.51953125 122.375 C1.06673828 120.58835937 1.06673828 120.58835937 1.625 118.765625 C6.53448134 98.45446879 2.19693346 76.03981983 -8.48046875 58.375 C-10.64574382 55.21390267 -12.98849486 52.28318095 -15.48046875 49.375 C-16.12113281 48.6015625 -16.76179687 47.828125 -17.421875 47.03125 C-30.38273014 31.81302478 -48.04948955 23.6025925 -67.48046875 20.375 C-69.04667969 20.09462891 -69.04667969 20.09462891 -70.64453125 19.80859375 C-93.61174139 16.29707815 -117.7941921 27.00305336 -134.48046875 42.375 Z " fill="#888888" transform="translate(325.48046875,151.625)"/>
<path d="M0 0 C3.58581046 2.51616376 6.10555494 5.14477719 8.52734375 8.7734375 C9.29046875 9.8046875 10.05359375 10.8359375 10.83984375 11.8984375 C14.12831764 17.99380961 14.29520817 26.34036688 12.90234375 33.0234375 C11.23166766 37.57982683 9.0391044 41.63190849 6.52734375 45.7734375 C5.86734375 45.7734375 5.20734375 45.7734375 4.52734375 45.7734375 C4.52734375 46.4334375 4.52734375 47.0934375 4.52734375 47.7734375 C3.86734375 47.7734375 3.20734375 47.7734375 2.52734375 47.7734375 C2.52734375 48.4334375 2.52734375 49.0934375 2.52734375 49.7734375 C0.75736901 50.58780618 -1.01366777 51.3998669 -2.78515625 52.2109375 C-3.77128906 52.66339844 -4.75742187 53.11585938 -5.7734375 53.58203125 C-12.21825621 56.42670521 -19.2200201 57.01701141 -26.05078125 55.01953125 C-28.28255718 54.05166924 -30.36890669 52.99336328 -32.47265625 51.7734375 C-33.40658203 51.23589844 -33.40658203 51.23589844 -34.359375 50.6875 C-36.03515625 49.6484375 -36.03515625 49.6484375 -38.47265625 47.7734375 C-38.47265625 47.1134375 -38.47265625 46.4534375 -38.47265625 45.7734375 C-39.13265625 45.7734375 -39.79265625 45.7734375 -40.47265625 45.7734375 C-45.94851395 36.55644038 -49.37611362 28.30410623 -46.66796875 17.58984375 C-43.41177438 7.87740191 -38.296453 2.15306441 -29.34765625 -2.7265625 C-19.44105554 -6.56472194 -9.05146037 -5.17573439 0 0 Z " fill="#898989" transform="translate(395.47265625,96.2265625)"/>
<path d="M0 0 C-3.32850747 3.59478807 -6.98971331 6.22364768 -11 9 C-11 7.35 -11 5.7 -11 4 C-10.01 4 -9.02 4 -8 4 C-7.87625 3.360625 -7.7525 2.72125 -7.625 2.0625 C-7.41875 1.381875 -7.2125 0.70125 -7 0 C-4.3333581 -1.33332095 -2.83319697 -0.67102033 0 0 Z " fill="#979696" transform="translate(89,69)"/>
<path d="M0 0 C0.66 1.32 1.32 2.64 2 4 C1.01 3.67 0.02 3.34 -1 3 C-1 3.66 -1 4.32 -1 5 C-0.34 5.33 0.32 5.66 1 6 C0.21625 6.433125 -0.5675 6.86625 -1.375 7.3125 C-4.21698375 8.89220247 -4.21698375 8.89220247 -6 12 C-6.66 11.67 -7.32 11.34 -8 11 C-6.85539001 9.35331565 -5.70927742 7.70767566 -4.5625 6.0625 C-3.92441406 5.14597656 -3.28632813 4.22945312 -2.62890625 3.28515625 C-1 1 -1 1 0 0 Z " fill="#A4A4A4" transform="translate(35,56)"/>
<path d="M0 0 C0 1.66666667 0 3.33333333 0 5 C-0.66 5 -1.32 5 -2 5 C-2.33 5.99 -2.66 6.98 -3 8 C-4.65 8.33 -6.3 8.66 -8 9 C-8 8.34 -8 7.68 -8 7 C-6.25 5.2734375 -6.25 5.2734375 -4 3.375 C-3.2575 2.74335938 -2.515 2.11171875 -1.75 1.4609375 C-1.1725 0.97882813 -0.595 0.49671875 0 0 Z " fill="#A1A1A1" transform="translate(423,421)"/>
<path d="M0 0 C0.33 0.66 0.66 1.32 1 2 C-1.92307692 6.38461538 -1.92307692 6.38461538 -4 8 C-6.6875 8.1875 -6.6875 8.1875 -9 8 C-6.14723863 5.06799526 -3.34920216 2.35684596 0 0 Z " fill="#AAAAAA" transform="translate(175,148)"/>
<path d="M0 0 C0.66 0 1.32 0 2 0 C2.33 1.98 2.66 3.96 3 6 C1.35 6.66 -0.3 7.32 -2 8 C-1.34 5.36 -0.68 2.72 0 0 Z " fill="#9F9D9E" transform="translate(324,277)"/>
<path d="M0 0 C0 2 0 4 0 6 C-1.98 6.99 -3.96 7.98 -6 9 C-4.68775452 5.06326356 -3.08089673 2.77280706 0 0 Z " fill="#B7B7B7" transform="translate(358,99)"/>
<path d="M0 0 C2.97 1.98 2.97 1.98 6 4 C5.67 4.99 5.34 5.98 5 7 C3.0625 6.3125 3.0625 6.3125 1 5 C0.25 2.375 0.25 2.375 0 0 Z " fill="#999999" transform="translate(81,430)"/>
<path d="M0 0 C1.2065625 0.0309375 1.2065625 0.0309375 2.4375 0.0625 C2.1075 1.0525 1.7775 2.0425 1.4375 3.0625 C2.0975 3.7225 2.7575 4.3825 3.4375 5.0625 C0.4375 5.0625 0.4375 5.0625 -1.75 3.0625 C-2.348125 2.4025 -2.94625 1.7425 -3.5625 1.0625 C-2.5625 0.0625 -2.5625 0.0625 0 0 Z " fill="#9D9D9D" transform="translate(51.5625,460.9375)"/>
</svg>
