<?xml version="1.0" encoding="UTF-8"?>
<svg version="1.1" xmlns="http://www.w3.org/2000/svg" width="512" height="512">
<path d="M0 0 C33.49032126 26.38631372 53.88171959 65.42889649 61.7421875 106.875 C62.03108862 109.37880969 62.09460275 111.69106549 62.078125 114.203125 C61.90274546 122.38073237 61.90274546 122.38073237 65.56103516 129.26464844 C69.45051672 131.76867811 73.75123318 133.28547789 78.05371094 134.9296875 C83.10328881 137.14693113 87.06977893 141.12606331 91.08203125 144.8203125 C91.71238281 145.35914063 92.34273438 145.89796875 92.9921875 146.453125 C106.02975214 158.27305832 114.40806541 177.54740413 116.08203125 194.8203125 C116.23444121 198.80005657 116.23915627 202.77743065 116.24316406 206.75976562 C116.24812897 207.94613617 116.25309387 209.13250671 116.25820923 210.35482788 C116.27027001 213.59499248 116.2777641 216.8351211 116.28221989 220.07530403 C116.2851644 222.10718684 116.28927184 224.13906419 116.29372406 226.17094421 C116.30738283 232.54988402 116.31705589 238.92881112 116.32092595 245.30776453 C116.32539481 252.63035144 116.34289473 259.95275059 116.37192655 267.27528048 C116.3936744 272.96138772 116.40363725 278.64744267 116.40496707 284.33359098 C116.40600632 287.71714242 116.4117225 291.10051702 116.42978668 294.48402405 C116.56045083 323.21634799 113.08979696 346.45587844 92.08203125 367.8203125 C91.39496094 368.52027344 90.70789063 369.22023438 90 369.94140625 C70.03360121 388.94467635 44.54782191 391.13459618 18.3359375 391.07910156 C16.16942223 391.08181649 14.00290788 391.08538023 11.83639526 391.08972168 C5.98934003 391.09878824 0.1423559 391.0953252 -5.70470047 391.08896351 C-11.84537182 391.0838737 -17.98603738 391.08860321 -24.12670898 391.09173584 C-34.43572067 391.09536682 -44.74470362 391.09059919 -55.05371094 391.08105469 C-66.94503933 391.07017183 -78.83629912 391.07369802 -90.72762585 391.0847075 C-100.96668933 391.09380512 -111.20573225 391.09505356 -121.44479847 391.08983016 C-127.54726599 391.08672406 -133.64970134 391.08626356 -139.75216675 391.09290314 C-145.49129294 391.09871207 -151.23033131 391.09461518 -156.96944809 391.08311462 C-159.06635264 391.08048693 -161.16326467 391.08120049 -163.26016617 391.08563995 C-187.65780228 391.13250191 -209.62605312 388.21118818 -228.91796875 371.8203125 C-229.583125 371.29953125 -230.24828125 370.77875 -230.93359375 370.2421875 C-241.30371 361.83177825 -248.44120146 350.29367922 -252.91796875 337.8203125 C-253.41945686 336.50586906 -253.41945686 336.50586906 -253.93107605 335.16487122 C-258.15245746 322.14249288 -257.50588177 308.68065452 -257.45527077 295.13873672 C-257.44501117 291.5263174 -257.45457183 287.91393497 -257.46081543 284.30151367 C-257.4680547 278.23967075 -257.45860283 272.17802395 -257.43945312 266.11621094 C-257.41769142 259.14792376 -257.42474546 252.18010504 -257.44675875 245.21182919 C-257.46501982 239.18582422 -257.46741927 233.15995873 -257.45700407 227.13393497 C-257.45082742 223.55376086 -257.44976968 219.97380554 -257.46315002 216.39364624 C-257.51948491 198.95564391 -257.49174201 183.16826023 -249.10546875 167.4453125 C-248.75782471 166.77669189 -248.41018066 166.10807129 -248.05200195 165.41918945 C-245.19843362 160.06899264 -242.01896275 155.30603049 -237.91796875 150.8203125 C-236.71720703 149.48226562 -236.71720703 149.48226562 -235.4921875 148.1171875 C-226.63210178 138.73139481 -216.74896236 132.90469277 -204.91796875 127.8203125 C-204.82 126.52480469 -204.72203125 125.22929687 -204.62109375 123.89453125 C-202.51795176 98.07656582 -196.34308643 74.64367055 -183.91796875 51.8203125 C-183.59183594 51.20961914 -183.26570313 50.59892578 -182.9296875 49.96972656 C-165.8684716 18.14138256 -137.49591947 -10.21303292 -102.41796875 -21.1796875 C-65.38219934 -32.12939324 -30.15190148 -22.52310713 0 0 Z M-133.91796875 37.8203125 C-155.42426098 59.83439218 -170.91796875 92.811415 -170.91796875 123.8203125 C-104.58796875 123.8203125 -38.25796875 123.8203125 30.08203125 123.8203125 C28.58103642 109.82136907 28.58103642 109.82136907 25.45703125 96.3828125 C25.06789551 95.07050659 25.06789551 95.07050659 24.67089844 93.73168945 C15.05551192 62.48733272 -5.32126133 32.3308889 -34.60302734 16.69897461 C-70.95379066 -2.06950297 -106.25603139 9.97445269 -133.91796875 37.8203125 Z M-210.91796875 169.8203125 C-222.48493441 182.89601281 -225.07119956 196.72374763 -225.06323242 213.54980469 C-225.06659103 214.58362274 -225.06994965 215.6174408 -225.07341003 216.68258667 C-225.08285644 220.07746607 -225.08485999 223.4722958 -225.0859375 226.8671875 C-225.08915456 229.24456807 -225.09251896 231.62194845 -225.09602356 233.99932861 C-225.10199913 238.97546853 -225.10386509 243.95159112 -225.10327148 248.92773438 C-225.10316998 255.27672239 -225.11681778 261.6255983 -225.13404369 267.97455978 C-225.14520999 272.88361106 -225.14718927 277.79263563 -225.14666176 282.7016983 C-225.14783507 285.04105261 -225.15222003 287.38040776 -225.15999413 289.71974945 C-225.39540717 319.15933211 -225.39540717 319.15933211 -210.91796875 344.08203125 C-199.53323905 353.97696234 -186.71774805 357.9761582 -171.88717651 357.96075439 C-170.98805168 357.96372552 -170.08892685 357.96669664 -169.16255581 357.9697578 C-166.15507329 357.97841698 -163.14763071 357.9799507 -160.14013672 357.98144531 C-157.98140885 357.98607549 -155.82268179 357.99110042 -153.66395569 357.99649048 C-147.80212226 358.00959808 -141.94030028 358.01605636 -136.07845449 358.02050114 C-132.41354945 358.02343478 -128.74864752 358.02754017 -125.08374405 358.03200531 C-113.60945586 358.04567653 -102.13517479 358.05534477 -90.66087902 358.0592072 C-77.42995555 358.06368578 -64.1991355 358.08122606 -50.96824348 358.1102078 C-40.7319241 358.13184914 -30.49563377 358.14191281 -20.25929177 358.14324832 C-14.15003298 358.14429467 -8.04087145 358.15016639 -1.93163681 358.16806793 C3.81888711 358.18459073 9.56924109 358.18668364 15.31978035 358.17792892 C17.42397455 358.17716078 19.52817804 358.18147173 21.63234901 358.19138718 C40.25015777 358.27393587 55.73869449 356.56399391 69.82421875 343.20703125 C77.93663386 334.63145057 83.17026766 323.65818876 83.22920227 311.75085449 C83.23635757 310.75306976 83.24351288 309.75528503 83.25088501 308.7272644 C83.25357391 307.64357574 83.25626282 306.55988708 83.2590332 305.44335938 C83.2656044 304.29308258 83.2721756 303.14280579 83.27894592 301.95767212 C83.29865225 298.15146821 83.31033736 294.34530377 83.3203125 290.5390625 C83.32438803 289.23596634 83.32846355 287.93287018 83.33266258 286.59028625 C83.35170237 280.40036072 83.36593242 274.21044696 83.37427455 268.0204978 C83.38402387 260.90609321 83.41028761 253.79200165 83.45077544 246.6777072 C83.4810855 241.15982429 83.49575766 235.64203032 83.49905556 230.12406588 C83.50139036 226.83771292 83.51216362 223.55176816 83.53551674 220.26548767 C83.56002287 216.58755022 83.5589214 212.910417 83.55200195 209.23242188 C83.56481201 208.16492706 83.57762207 207.09743225 83.59082031 205.99758911 C83.49825995 192.3965182 78.95251652 180.47703288 69.86328125 170.34765625 C54.38617684 155.29767972 35.42794087 155.51707258 15.25976562 155.56152344 C13.18044411 155.55880876 11.10112356 155.55524517 9.02180481 155.55090332 C3.40822017 155.54183376 -2.20529044 155.54530106 -7.81887627 155.55166149 C-13.71311507 155.55674973 -19.60734784 155.55202222 -25.50158691 155.54888916 C-35.39706553 155.54525772 -45.29251422 155.55002701 -55.18798828 155.55957031 C-66.60386952 155.57045326 -78.01967929 155.5669271 -89.4355588 155.5559175 C-99.2635498 155.54682118 -109.09151937 155.54557081 -118.91951323 155.55079484 C-124.777719 155.55390165 -130.63589127 155.55435946 -136.49409485 155.54772186 C-142.0033888 155.54191484 -147.51259124 155.54600639 -153.02187538 155.55751038 C-155.03534608 155.56013908 -157.04882457 155.55942275 -159.0622921 155.55498505 C-177.76739795 155.51758173 -196.69797383 155.81255631 -210.91796875 169.8203125 Z " fill="#A1A0A5" transform="translate(326.91796875,74.1796875)"/>
</svg>
