<?xml version="1.0" encoding="UTF-8"?>
<svg version="1.1" xmlns="http://www.w3.org/2000/svg" width="225" height="225">
<path d="M0 0 C1.0053479 -0.00287018 2.0106958 -0.00574036 3.04650879 -0.00869751 C5.15747648 -0.01072547 7.26846352 -0.00528511 9.37939453 0.00732422 C12.58539395 0.02339561 15.7901329 0.00743158 18.99609375 -0.01171875 C21.05989858 -0.00973609 23.12370263 -0.00589196 25.1875 0 C26.13258423 -0.00607269 27.07766846 -0.01214539 28.0513916 -0.0184021 C38.72265049 0.09274205 46.5082247 2.78086532 54.6015625 9.78515625 C59.39824782 14.81490936 62.49985788 20.65429261 64.09375 27.3984375 C65.37950928 27.41302002 66.66526855 27.42760254 67.98999023 27.44262695 C72.79299738 27.50091319 77.5955505 27.57814311 82.39819336 27.66088867 C84.47070914 27.69399595 86.54331201 27.72207138 88.6159668 27.74487305 C91.60763411 27.77868126 94.59851349 27.83100918 97.58984375 27.88671875 C98.50583847 27.89310867 99.42183319 27.8994986 100.36558533 27.90608215 C108.47018234 28.08833347 116.16577213 29.47045963 122.09375 35.3984375 C124.62276753 39.00431106 125.4706652 41.436701 125.48193359 45.82788086 C125.49139008 46.88925766 125.50084656 47.95063446 125.5105896 49.04417419 C125.50148056 50.74900719 125.50148056 50.74900719 125.4921875 52.48828125 C125.49649277 54.25420372 125.49649277 54.25420372 125.50088501 56.05580139 C125.5029245 58.54298382 125.49740273 61.03018233 125.48486328 63.51733398 C125.46882332 67.31856291 125.48470954 71.1187262 125.50390625 74.91992188 C125.50192352 77.33854401 125.49807923 79.75716548 125.4921875 82.17578125 C125.49826019 83.31031235 125.50433289 84.44484344 125.5105896 85.61375427 C125.44905795 92.54045526 125.02115351 97.47103399 119.90625 102.5859375 C112.83494578 107.14300022 106.31308951 107.88753965 98.09375 108.0859375 C97.12824219 108.12009766 96.16273438 108.15425781 95.16796875 108.18945312 C92.81001218 108.27116449 90.45239137 108.34055869 88.09375 108.3984375 C89.08375 109.8834375 89.08375 109.8834375 90.09375 111.3984375 C90.06231707 114.13834158 89.53896663 116.68261604 89.09375 119.3984375 C93.00846146 119.13651631 96.92281917 118.86986016 100.83691406 118.59887695 C102.82079389 118.46251538 104.80492791 118.32986868 106.7890625 118.19726562 C108.03945312 118.11025391 109.28984375 118.02324219 110.578125 117.93359375 C112.30627441 117.81576538 112.30627441 117.81576538 114.06933594 117.69555664 C116.54529588 117.45231776 118.70447637 117.03360292 121.09375 116.3984375 C121.1954553 124.08468277 121.26534403 131.77075345 121.31347656 139.45751953 C121.33354933 142.07054123 121.36081358 144.68351825 121.39550781 147.29638672 C121.44421435 151.05968272 121.46676311 154.82238299 121.484375 158.5859375 C121.50502014 159.74770508 121.52566528 160.90947266 121.54693604 162.10644531 C121.54917909 170.27715878 120.33530455 175.46928047 115.03125 181.8984375 C113.09375 183.3984375 113.09375 183.3984375 110.09375 183.3984375 C109.84625 184.5121875 109.59875 185.6259375 109.34375 186.7734375 C107.75515725 193.10527527 105.77935669 200.66937455 101.09375 205.3984375 C97.96985435 205.91297531 97.96985435 205.91297531 94.03598022 205.93328857 C93.31289472 205.9423508 92.58980922 205.95141303 91.84481204 205.96074986 C89.41500102 205.98612745 86.98608145 205.98279186 84.55615234 205.97949219 C82.81662844 205.99145773 81.07711518 206.00506767 79.33761597 206.02020264 C74.60587873 206.05559989 69.87443066 206.06491686 65.14257383 206.06746578 C61.19156858 206.07126188 57.24063082 206.08597562 53.28965151 206.10015416 C43.96373689 206.13275038 34.63797675 206.14248991 25.31201172 206.13964844 C15.69885827 206.13724812 6.08660476 206.17939284 -3.52632105 206.24262309 C-11.7821231 206.29498725 -20.03763175 206.3163813 -28.29359853 206.3138268 C-33.22322075 206.31280815 -38.15204445 206.32413683 -43.08150101 206.366539 C-47.72273566 206.40536883 -52.36241339 206.40551301 -57.00370407 206.37647247 C-58.70280999 206.37230096 -60.40201407 206.38167152 -62.10095215 206.40591431 C-76.50609706 206.59807242 -76.50609706 206.59807242 -82.3633728 201.58770752 C-86.44526091 197.31010148 -88.05534494 194.03456628 -88.15625 188.1484375 C-88.52588098 182.83143802 -90.04443521 180.0108812 -93.53125 176.0546875 C-96.13293044 172.92084515 -96.02868896 169.90426452 -96.01977539 166.0090332 C-96.01966209 164.35766106 -96.01966209 164.35766106 -96.01954651 162.67292786 C-96.01438522 161.48535385 -96.00922394 160.29777985 -96.00390625 159.07421875 C-96.00178383 157.24941231 -96.00178383 157.24941231 -95.99961853 155.38774109 C-95.99401312 151.4954484 -95.98145967 147.60321286 -95.96875 143.7109375 C-95.9637357 141.07487062 -95.95917267 138.43880284 -95.95507812 135.80273438 C-95.94404193 129.33461586 -95.9272985 122.86653076 -95.90625 116.3984375 C-95.02060867 116.54054657 -94.13496735 116.68265564 -93.2224884 116.82907104 C-91.47424019 117.10486496 -91.47424019 117.10486496 -89.69067383 117.38623047 C-87.96002434 117.66126907 -87.96002434 117.66126907 -86.19441223 117.94186401 C-82.25222804 118.48925087 -78.57104543 118.59777947 -74.59375 118.5234375 C-73.31886719 118.50539063 -72.04398438 118.48734375 -70.73046875 118.46875 C-69.79847656 118.44554687 -68.86648437 118.42234375 -67.90625 118.3984375 C-67.84566406 117.76035156 -67.78507812 117.12226563 -67.72265625 116.46484375 C-67.63886719 115.63855469 -67.55507812 114.81226563 -67.46875 113.9609375 C-67.38753906 113.13722656 -67.30632812 112.31351562 -67.22265625 111.46484375 C-66.90625 109.3984375 -66.90625 109.3984375 -65.90625 108.3984375 C-67.08960938 108.37265625 -68.27296875 108.346875 -69.4921875 108.3203125 C-89.20100661 107.69691919 -89.20100661 107.69691919 -95.578125 101.87109375 C-98.98289957 97.95942859 -100.02986693 95.38915224 -100.08325195 90.32543945 C-100.09608719 89.26706375 -100.10892242 88.20868805 -100.12214661 87.11824036 C-100.12953354 85.96933823 -100.13692047 84.8204361 -100.14453125 83.63671875 C-100.152603 82.45756393 -100.16067474 81.27840912 -100.16899109 80.06352234 C-100.18284277 77.5626269 -100.19356005 75.06171247 -100.20141602 72.56079102 C-100.21860142 68.7439359 -100.26247644 64.92795286 -100.30664062 61.11132812 C-100.31676972 58.68229804 -100.32528515 56.25326059 -100.33203125 53.82421875 C-100.34953934 52.68543777 -100.36704742 51.5466568 -100.38508606 50.37336731 C-100.36721438 43.81169359 -99.88151516 39.70315633 -95.90625 34.3984375 C-88.78351215 28.54196415 -81.43208195 28.09454059 -72.59765625 27.984375 C-71.63093491 27.96500885 -70.66421356 27.9456427 -69.66819763 27.9256897 C-66.60180287 27.86624559 -63.53536984 27.81964981 -60.46875 27.7734375 C-58.38084364 27.73522533 -56.2929525 27.69617174 -54.20507812 27.65625 C-49.10559338 27.56057312 -44.00603489 27.47641295 -38.90625 27.3984375 C-38.63635254 26.71281738 -38.36645508 26.02719727 -38.08837891 25.32080078 C-37.73179199 24.42087402 -37.37520508 23.52094727 -37.0078125 22.59375 C-36.65541504 21.70187988 -36.30301758 20.81000977 -35.93994141 19.89111328 C-32.9032854 12.56842603 -27.63276758 7.47432477 -20.90625 3.3984375 C-13.93163705 0.67032775 -7.43519099 -0.04777525 0 0 Z M3.09375 90.3984375 C1.44375 92.3784375 -0.20625 94.3584375 -1.90625 96.3984375 C7.99375 96.7284375 17.89375 97.0584375 28.09375 97.3984375 C22.14751996 90.13858941 22.14751996 90.13858941 14.09375 88.3984375 C10.24776724 88.3984375 6.56901549 88.73081926 3.09375 90.3984375 Z " fill="#FBFBFB" transform="translate(99.90625,19.6015625)"/>
<path d="M0 0 C0.50996521 0.2138887 1.01993042 0.4277774 1.54534912 0.64814758 C9.50310299 3.52928201 17.35636329 3.35498501 25.68958282 3.257864 C28.31346471 3.22995999 30.93646527 3.22534173 33.56048584 3.22737122 C41.01297218 3.23088347 48.46484799 3.20761638 55.91699219 3.1340332 C60.49357387 3.09048247 65.06883528 3.08577515 69.64556122 3.10561562 C71.38230494 3.10551826 73.11911459 3.09070246 74.85559845 3.06065941 C88.44210294 2.83161789 88.44210294 2.83161789 92.33752441 5.75308228 C93.85737476 7.77856074 94.91086872 9.72415867 96 12 C99.94907866 15.85275967 103.15479059 16.30584937 108.5 16.5 C114.03619735 16.34849631 116.85379655 15.58590569 121 12 C121.66 12 122.32 12 123 12 C123.28875 11.236875 123.5775 10.47375 123.875 9.6875 C125 7 125 7 127 4 C129.49992538 3.69403186 131.75683306 3.58321723 134.26025391 3.59936523 C135.00847412 3.59238617 135.75669434 3.5854071 136.52758789 3.57821655 C139.01069252 3.55816155 141.49338386 3.55873966 143.9765625 3.55859375 C145.7033297 3.54682377 147.43008672 3.53346047 149.15682983 3.51856995 C153.71416429 3.48229511 158.27140865 3.46216383 162.82885742 3.44702148 C170.10225378 3.42225396 177.37545049 3.38230538 184.64866257 3.32512093 C187.18335434 3.30887076 189.71785669 3.30502015 192.25259399 3.30210876 C193.82285885 3.2923223 195.39312082 3.28205738 196.96337891 3.27124023 C197.66083221 3.27379318 198.35828552 3.27634613 199.07687378 3.27897644 C204.04951763 3.22787369 208.24543949 2.32644127 213 1 C214.33237532 0.66285774 215.66546817 0.32850217 217 0 C217.1017053 7.68624527 217.17159403 15.37231595 217.21972656 23.05908203 C217.23979933 25.67210373 217.26706358 28.28508075 217.30175781 30.89794922 C217.35046435 34.66124522 217.37301311 38.42394549 217.390625 42.1875 C217.41127014 43.34926758 217.43191528 44.51103516 217.45318604 45.70800781 C217.45542909 53.87872128 216.24155455 59.07084297 210.9375 65.5 C209 67 209 67 206 67 C205.7525 68.11375 205.505 69.2275 205.25 70.375 C203.66140725 76.70683777 201.68560669 84.27093705 197 89 C193.87610435 89.51453781 193.87610435 89.51453781 189.94223022 89.53485107 C189.21914472 89.5439133 188.49605922 89.55297553 187.75106204 89.56231236 C185.32125102 89.58768995 182.89233145 89.58435436 180.46240234 89.58105469 C178.72287844 89.59302023 176.98336518 89.60663017 175.24386597 89.62176514 C170.51212873 89.65716239 165.78068066 89.66647936 161.04882383 89.66902828 C157.09781858 89.67282438 153.14688082 89.68753812 149.19590151 89.70171666 C139.86998689 89.73431288 130.54422675 89.74405241 121.21826172 89.74121094 C111.60510827 89.73881062 101.99285476 89.78095534 92.37992895 89.84418559 C84.1241269 89.89654975 75.86861825 89.9179438 67.61265147 89.9153893 C62.68302925 89.91437065 57.75420555 89.92569933 52.82474899 89.9681015 C48.18351434 90.00693133 43.54383661 90.00707551 38.90254593 89.97803497 C37.20344001 89.97386346 35.50423593 89.98323402 33.80529785 90.00747681 C19.40015294 90.19963492 19.40015294 90.19963492 13.5428772 85.18927002 C9.46098909 80.91166398 7.85090506 77.63612878 7.75 71.75 C7.38036902 66.43300052 5.86181479 63.6124437 2.375 59.65625 C-0.22668044 56.52240765 -0.12243896 53.50582702 -0.11352539 49.6105957 C-0.11344986 48.50968094 -0.11337433 47.40876617 -0.11329651 46.27449036 C-0.10813522 45.08691635 -0.10297394 43.89934235 -0.09765625 42.67578125 C-0.0962413 41.45924362 -0.09482635 40.24270599 -0.09336853 38.98930359 C-0.08776312 35.0970109 -0.07520967 31.20477536 -0.0625 27.3125 C-0.0574857 24.67643312 -0.05292267 22.04036534 -0.04882812 19.40429688 C-0.03779193 12.93617836 -0.0210485 6.46809326 0 0 Z " fill="#FCFCFC" transform="translate(4,136)"/>
<path d="M0 0 C0.99177152 0.32490071 1.98354303 0.64980143 3.00536823 0.98454762 C6.97397854 2.11173511 10.80786976 2.27721833 14.91410828 2.24723816 C16.06428278 2.25085978 16.06428278 2.25085978 17.23769313 2.25455457 C19.790956 2.26016217 22.34396541 2.25155091 24.8972168 2.24291992 C26.73410103 2.24399351 28.57098493 2.24593333 30.40786743 2.24867249 C35.3848691 2.25351067 40.36178079 2.24587861 45.33877158 2.23571944 C50.5485853 2.22692485 55.75839632 2.22869664 60.96821594 2.2290802 C69.71328229 2.22814437 78.45831389 2.21947017 87.20336914 2.20581055 C97.31734741 2.19007118 107.43128767 2.184813 117.5452773 2.1855461 C127.2751987 2.18615613 137.00510772 2.1810539 146.73502541 2.17275429 C150.87648426 2.16922181 155.01793874 2.1673911 159.15939903 2.16686058 C164.03246454 2.16585707 168.90549806 2.15975971 173.77855301 2.14969444 C175.56842796 2.14677065 177.35830658 2.14554383 179.14818382 2.14612198 C181.58777091 2.14661185 184.02726808 2.14096506 186.46684265 2.13371277 C187.17802378 2.13526137 187.88920491 2.13680997 188.62193698 2.1384055 C191.89312529 2.12230307 194.87123349 2.00592367 198 1 C194.29975776 17.65109008 194.29975776 17.65109008 189 23 C185.87610435 23.51453781 185.87610435 23.51453781 181.94223022 23.53485107 C181.21914472 23.5439133 180.49605922 23.55297553 179.75106204 23.56231236 C177.32125102 23.58768995 174.89233145 23.58435436 172.46240234 23.58105469 C170.72287844 23.59302023 168.98336518 23.60663017 167.24386597 23.62176514 C162.51212873 23.65716239 157.78068066 23.66647936 153.04882383 23.66902828 C149.09781858 23.67282438 145.14688082 23.68753812 141.19590151 23.70171666 C131.86998689 23.73431288 122.54422675 23.74405241 113.21826172 23.74121094 C103.60510827 23.73881062 93.99285476 23.78095534 84.37992895 23.84418559 C76.1241269 23.89654975 67.86861825 23.9179438 59.61265147 23.9153893 C54.68302925 23.91437065 49.75420555 23.92569933 44.82474899 23.9681015 C40.18351434 24.00693133 35.54383661 24.00707551 30.90254593 23.97803497 C29.20344001 23.97386346 27.50423593 23.98323402 25.80529785 24.00747681 C11.40015294 24.19963492 11.40015294 24.19963492 5.5428772 19.18927002 C2.34784247 15.84104011 0.13191943 12.8890862 -0.1953125 8.203125 C-0.17210937 7.22859375 -0.14890625 6.2540625 -0.125 5.25 C-0.09792969 3.77273437 -0.09792969 3.77273437 -0.0703125 2.265625 C-0.04710937 1.51796875 -0.02390625 0.7703125 0 0 Z " fill="#000000" transform="translate(12,202)"/>
<path d="M0 0 C0.70602859 0.02785583 1.41205719 0.05571167 2.13948059 0.08441162 C4.39248786 0.17771882 6.64293876 0.29941449 8.89453125 0.421875 C10.42244341 0.49015615 11.95043956 0.55658481 13.47851562 0.62109375 C17.22266752 0.78321439 20.96477712 0.97080432 24.70703125 1.171875 C26.74138656 4.90152639 27.70703125 6.84092542 27.70703125 11.171875 C53.11703125 11.171875 78.52703125 11.171875 104.70703125 11.171875 C104.70703125 11.501875 104.70703125 11.831875 104.70703125 12.171875 C94.31203125 12.666875 94.31203125 12.666875 83.70703125 13.171875 C84.69703125 14.656875 84.69703125 14.656875 85.70703125 16.171875 C85.37703125 18.811875 85.04703125 21.451875 84.70703125 24.171875 C93.28703125 23.841875 101.86703125 23.511875 110.70703125 23.171875 C110.70703125 23.501875 110.70703125 23.831875 110.70703125 24.171875 C106.08324707 25.08069066 101.62421202 25.30119596 96.92919922 25.26611328 C95.36530577 25.26332925 93.80141212 25.26065906 92.23751831 25.25808716 C91.41651516 25.25503696 90.59551201 25.25198677 89.74962997 25.24884415 C85.38252316 25.23744587 81.01551728 25.25800183 76.6484375 25.2734375 C71.10022866 25.29175432 65.55257967 25.30029759 60.00439453 25.27148438 C55.51019932 25.24898284 51.01721344 25.26031741 46.52310562 25.29449081 C44.81268801 25.30126679 43.10217365 25.29556131 41.39184189 25.27713394 C39.00188657 25.25302504 36.61588991 25.2721188 34.22607422 25.30126953 C33.52052399 25.28388229 32.81497375 25.26649506 32.08804321 25.24858093 C29.84331539 25.23170038 29.84331539 25.23170038 26.70703125 26.171875 C24.8618193 28.38986342 23.93166219 30.50835698 22.70703125 33.171875 C18.55554157 37.55453812 13.98636539 38.53240234 8.08203125 38.734375 C1.91232576 38.47077326 -1.45972015 37.21470638 -5.71875 32.640625 C-7.49847341 30.5951964 -9.07739455 28.60302341 -10.29296875 26.171875 C-11.2863324 26.16378815 -12.27969604 26.15570129 -13.30316162 26.14736938 C-22.66149766 26.06990813 -32.0196883 25.98216885 -41.37783432 25.88434792 C-46.18903465 25.83438718 -51.00021305 25.78805706 -55.81152344 25.75 C-60.45409553 25.71314446 -65.09648403 25.66678368 -69.73889923 25.61381149 C-71.51069165 25.59526899 -73.28252342 25.58016049 -75.05437469 25.56853104 C-77.53481373 25.55166613 -80.01483242 25.52263068 -82.49511719 25.49072266 C-83.59563416 25.48748238 -83.59563416 25.48748238 -84.71838379 25.48417664 C-88.70458938 25.41860354 -90.61362794 25.01154541 -94.29296875 23.171875 C-87.03296875 23.171875 -79.77296875 23.171875 -72.29296875 23.171875 C-71.96296875 20.201875 -71.63296875 17.231875 -71.29296875 14.171875 C-70.96296875 13.841875 -70.63296875 13.511875 -70.29296875 13.171875 C-76.23296875 12.841875 -82.17296875 12.511875 -88.29296875 12.171875 C-88.29296875 11.841875 -88.29296875 11.511875 -88.29296875 11.171875 C-62.88296875 11.171875 -37.47296875 11.171875 -11.29296875 11.171875 C-10.96296875 8.861875 -10.63296875 6.551875 -10.29296875 4.171875 C-8.07291899 -0.69626854 -4.80720736 -0.29861814 0 0 Z " fill="#0A0A0A" transform="translate(104.29296875,114.828125)"/>
<path d="M0 0 C0.85494049 -0.01606293 1.70988098 -0.03212585 2.59072876 -0.04867554 C6.5175087 -0.09325392 10.44411946 -0.13422545 14.37109375 -0.15722656 C16.4369639 -0.17374316 18.50277792 -0.20097601 20.56835938 -0.23925781 C23.55417391 -0.29429366 26.53864742 -0.31594524 29.52490234 -0.33056641 C30.43978424 -0.35323578 31.35466614 -0.37590515 32.29727173 -0.39926147 C38.7130977 -0.37833653 42.88244891 1.10885209 47.86083984 5.19287109 C51.86083984 9.49287109 51.86083984 9.49287109 51.86083984 12.19287109 C29.75083984 12.19287109 7.64083984 12.19287109 -15.13916016 12.19287109 C-12.88416016 6.55537109 -12.88416016 6.55537109 -9.63916016 3.94287109 C-8.72650391 3.19263672 -8.72650391 3.19263672 -7.79541016 2.42724609 C-5.07289889 0.39820468 -3.34013195 0.05703939 0 0 Z " fill="#0B0B0B" transform="translate(94.13916015625,36.80712890625)"/>
<path d="M0 0 C3 2.4375 3 2.4375 5 5 C5.33 5.33 5.66 5.66 6 6 C7.07891454 16.77373232 7.07891454 16.77373232 4.953125 21.16015625 C2.14405195 24.52278194 0.05402579 25.87838164 -4.25 26.375 C-9.19272958 25.88072704 -10.53828301 24.46171699 -14 21 C-15.39865903 18.20268195 -15.24537267 15.80715441 -15.3125 12.6875 C-15.34988281 11.55699219 -15.38726562 10.42648438 -15.42578125 9.26171875 C-14.91605818 5.35695943 -13.72790817 3.77851871 -11 1 C-7.53003768 -0.73498116 -3.78492805 -0.60794181 0 0 Z " fill="#FBFBFB" transform="translate(117,118)"/>
</svg>
